<?xml version="1.0" encoding="UTF-8" standalone="no"?><!DOCTYPE svg PUBLIC "-//W3C//DTD SVG 1.1//EN" "http://www.w3.org/Graphics/SVG/1.1/DTD/svg11.dtd"><svg width="100%" height="100%" viewBox="0 0 632 328" version="1.1" xmlns="http://www.w3.org/2000/svg" xmlns:xlink="http://www.w3.org/1999/xlink" xml:space="preserve" xmlns:serif="http://www.serif.com/" style="fill-rule:evenodd;clip-rule:evenodd;stroke-linejoin:round;stroke-miterlimit:2;"><g><path d="M203.108,209.12c-0.159,-2.597 -0.24,-5.215 -0.24,-7.852c0,-2.637 0.081,-5.255 0.24,-7.852l0,15.704Z"/><path d="M203.108,209.12c-0.159,-2.597 -0.24,-5.215 -0.24,-7.852c0,-2.637 0.081,-5.255 0.24,-7.852l0,15.704Z"/><path d="M203.108,209.12l0,18.236c0,15.456 -2.608,29.313 -7.824,41.571c-5.216,12.254 -12.451,22.803 -21.704,31.649c-9.249,8.84 -20.109,15.598 -32.578,20.275c-12.47,4.676 -26.106,7.014 -40.909,7.014c-11.597,0 -22.484,-1.31 -32.663,-3.93c-10.178,-2.615 -19.465,-6.347 -27.859,-11.197c-8.39,-4.85 -15.871,-10.806 -22.444,-17.867c-6.568,-7.061 -12.277,-14.972 -17.127,-23.732l43.846,-45.452c4.239,6.08 8.298,11.221 12.176,15.423c3.878,4.202 7.702,7.589 11.472,10.162c3.775,2.573 7.676,4.472 11.704,5.697c4.033,1.221 8.237,1.831 12.613,1.831c7.366,0 13.812,-1.701 19.338,-5.105c5.526,-3.404 9.808,-8.125 12.846,-14.162c3.042,-6.043 4.563,-13.071 4.563,-21.085l0,-143.777l74.55,-74.671l178.404,0l0,74.671l-178.404,0l0,118.745c-0.159,2.597 -0.24,5.215 -0.24,7.852c0,2.637 0.081,5.255 0.24,7.852Zm178.404,-134.449l74.489,-74.61l0.061,0.06l0,-0.121l175.316,0l0,74.671l-100.766,0l0,253.194l-74.55,0l0,-253.194l-74.55,0Zm74.55,126.597c0,69.871 -56.726,126.597 -126.597,126.597c-67.234,0 -122.297,-52.525 -126.357,-118.745l0,-15.704c4.06,-66.22 59.123,-118.745 126.357,-118.745c69.871,0 126.597,56.726 126.597,126.597Zm-126.597,-69.131c-38.154,0 -69.131,30.977 -69.131,69.131c0,38.154 30.977,69.131 69.131,69.131c38.155,0 69.131,-30.977 69.131,-69.131c0,-38.154 -30.976,-69.131 -69.131,-69.131Z"/></g></svg>